<svg width="20" height="20" viewBox="0 0 20 20" fill="none" xmlns="http://www.w3.org/2000/svg">
<circle cx="10" cy="10" r="10" fill="#1C85E8"/>
<path d="M17.0711 2.92891C15.1823 1.0402 12.6711 0 10 0C7.32887 0 4.81762 1.0402 2.92891 2.92891C1.04016 4.81766 0 7.32891 0 10C0 12.6711 1.04016 15.1823 2.92891 17.0711C4.81766 18.9598 7.32887 20 10 20C12.6711 20 15.1823 18.9598 17.0711 17.0711C18.9598 15.1823 20 12.6711 20 10C20 7.32891 18.9598 4.8177 17.0711 2.92891ZM10 18.8281C5.13215 18.8281 1.17188 14.8679 1.17188 10C1.17188 5.13215 5.13215 1.17188 10 1.17188C14.8679 1.17188 18.8281 5.13215 18.8281 10C18.8281 14.8679 14.8679 18.8281 10 18.8281Z" fill="#1C85E8"/>
<path d="M14.7777 6.79135C14.549 6.5626 14.1779 6.5626 13.9492 6.79139L8.77497 11.9656L6.05126 9.24186C5.82247 9.01307 5.45146 9.01307 5.22263 9.24186C4.9938 9.47065 4.9938 9.84166 5.22263 10.0705L8.36064 13.2085C8.47505 13.3229 8.62501 13.3801 8.77493 13.3801C8.92486 13.3801 9.07486 13.3229 9.18923 13.2085L14.7777 7.61999C15.0066 7.3912 15.0066 7.02018 14.7777 6.79135Z" fill="white"/>
</svg>
