<svg width="137" height="33" viewBox="0 0 137 33" fill="none" xmlns="http://www.w3.org/2000/svg">
<path d="M49.24 22.64C49.864 22.64 50.36 22.808 50.728 23.144C51.096 23.464 51.28 23.912 51.28 24.488C51.28 25.064 51.096 25.52 50.728 25.856C50.36 26.176 49.864 26.336 49.24 26.336C48.616 26.336 48.12 26.176 47.752 25.856C47.384 25.52 47.2 25.064 47.2 24.488C47.2 23.912 47.384 23.464 47.752 23.144C48.12 22.808 48.616 22.64 49.24 22.64ZM60.1008 24.368C61.4128 24.368 62.4688 23.728 63.2688 22.448L63.7008 22.592C63.3808 23.632 62.8048 24.52 61.9728 25.256C61.1568 25.976 60.1328 26.336 58.9008 26.336C57.2048 26.336 55.8528 25.8 54.8448 24.728C53.8528 23.64 53.3568 22.04 53.3568 19.928C53.3568 17.768 53.8928 16.12 54.9648 14.984C56.0368 13.832 57.4608 13.256 59.2368 13.256C62.2448 13.256 63.7488 15.032 63.7488 18.584H57.0048C56.9888 18.824 56.9808 19.2 56.9808 19.712C56.9808 20.768 57.1248 21.648 57.4128 22.352C57.7168 23.056 58.1008 23.568 58.5648 23.888C59.0448 24.208 59.5568 24.368 60.1008 24.368ZM59.0928 13.76C58.5168 13.76 58.0368 14.12 57.6528 14.84C57.2848 15.544 57.0528 16.64 56.9568 18.128H60.7248C60.7568 16.864 60.6288 15.824 60.3408 15.008C60.0688 14.176 59.6528 13.76 59.0928 13.76ZM75.7309 24.296C75.9869 24.664 76.2109 24.944 76.4029 25.136C76.5949 25.328 76.8189 25.448 77.0749 25.496V26C75.7949 25.936 74.9389 25.904 74.5069 25.904C74.0269 25.904 72.9869 25.936 71.3869 26V25.496C71.6269 25.496 71.8189 25.456 71.9629 25.376C72.1229 25.296 72.2029 25.176 72.2029 25.016C72.2029 24.92 72.1629 24.808 72.0829 24.68L69.5869 20.96L68.7469 22.016C68.2189 22.704 67.9549 23.344 67.9549 23.936C67.9549 24.384 68.1069 24.752 68.4109 25.04C68.7309 25.312 69.1549 25.472 69.6829 25.52V26C68.7549 25.952 67.6029 25.928 66.2269 25.928C65.5709 25.928 65.0109 25.952 64.5469 26V25.52C64.9149 25.392 65.2669 25.184 65.6029 24.896C65.9389 24.608 66.3149 24.2 66.7309 23.672L69.2989 20.528L65.7709 15.296C65.4669 14.864 65.2269 14.568 65.0509 14.408C64.8749 14.232 64.6669 14.128 64.4269 14.096V13.592C65.8349 13.656 66.7869 13.688 67.2829 13.688C67.6989 13.688 68.6429 13.656 70.1149 13.592V14.096C69.8749 14.096 69.6749 14.136 69.5149 14.216C69.3709 14.296 69.2989 14.416 69.2989 14.576C69.2989 14.704 69.3389 14.816 69.4189 14.912L71.6749 18.272L72.5869 17.072C73.1469 16.336 73.4269 15.72 73.4269 15.224C73.4269 14.888 73.2989 14.624 73.0429 14.432C72.8029 14.224 72.4429 14.104 71.9629 14.072V13.592C72.8909 13.64 73.7949 13.664 74.6749 13.664C75.3469 13.664 75.9149 13.64 76.3789 13.592V14.072C75.7069 14.296 74.9709 14.912 74.1709 15.92L71.9629 18.68L75.7309 24.296ZM86.2701 13.256C87.1021 13.256 87.8381 13.48 88.4781 13.928C89.1341 14.376 89.6461 15.048 90.0141 15.944C90.3821 16.84 90.5661 17.936 90.5661 19.232C90.5661 21.52 90.0621 23.28 89.0541 24.512C88.0621 25.728 86.7101 26.336 84.9981 26.336C84.5181 26.336 84.0621 26.272 83.6301 26.144C83.2141 26.016 82.8541 25.824 82.5501 25.568V27.968C82.5501 28.672 82.7261 29.16 83.0781 29.432C83.4301 29.704 83.9741 29.84 84.7101 29.84V30.344L84.0621 30.32C82.2861 30.272 81.1581 30.248 80.6781 30.248C80.1981 30.248 79.1901 30.28 77.6541 30.344V29.84C78.1821 29.84 78.5501 29.72 78.7581 29.48C78.9821 29.256 79.0941 28.832 79.0941 28.208V16.208C79.0941 15.472 78.9741 14.936 78.7341 14.6C78.5101 14.264 78.1181 14.096 77.5581 14.096V13.592C78.0701 13.64 78.5661 13.664 79.0461 13.664C80.4381 13.664 81.6061 13.552 82.5501 13.328V15.536C82.8861 14.8 83.3741 14.24 84.0141 13.856C84.6541 13.456 85.4061 13.256 86.2701 13.256ZM84.0621 25.688C85.0861 25.688 85.8221 25.184 86.2701 24.176C86.7181 23.152 86.9421 21.664 86.9421 19.712C86.9421 17.76 86.7581 16.368 86.3901 15.536C86.0381 14.704 85.5261 14.288 84.8541 14.288C84.3101 14.288 83.8221 14.472 83.3901 14.84C82.9741 15.208 82.6941 15.72 82.5501 16.376V25.04C82.9341 25.472 83.4381 25.688 84.0621 25.688ZM100.301 13.256C101.021 13.256 101.565 13.472 101.933 13.904C102.301 14.336 102.485 14.856 102.485 15.464C102.485 16.056 102.309 16.544 101.957 16.928C101.621 17.296 101.173 17.48 100.613 17.48C100.069 17.48 99.6368 17.344 99.3168 17.072C98.9968 16.784 98.8368 16.408 98.8368 15.944C98.8368 15.176 99.1888 14.552 99.8928 14.072C99.8288 14.056 99.7328 14.048 99.6048 14.048C99.4448 14.048 99.3168 14.064 99.2208 14.096C98.6128 14.192 98.0928 14.56 97.6608 15.2C97.2448 15.84 97.0368 16.496 97.0368 17.168V23.528C97.0368 24.264 97.2128 24.776 97.5648 25.064C97.9328 25.352 98.5088 25.496 99.2928 25.496V26C99.0688 26 98.8848 25.992 98.7408 25.976C97.1088 25.928 96.0208 25.904 95.4768 25.904C95.0448 25.904 94.0608 25.928 92.5248 25.976C92.3968 25.992 92.2368 26 92.0448 26V25.496C92.6208 25.496 93.0208 25.376 93.2448 25.136C93.4688 24.88 93.5808 24.424 93.5808 23.768V16.208C93.5808 15.472 93.4688 14.936 93.2448 14.6C93.0208 14.264 92.6208 14.096 92.0448 14.096V13.592C92.5568 13.64 93.0528 13.664 93.5328 13.664C94.9568 13.664 96.1248 13.552 97.0368 13.328V15.56C97.3408 14.872 97.7808 14.32 98.3568 13.904C98.9328 13.472 99.5808 13.256 100.301 13.256ZM109.976 24.368C111.288 24.368 112.344 23.728 113.144 22.448L113.576 22.592C113.256 23.632 112.68 24.52 111.848 25.256C111.032 25.976 110.008 26.336 108.776 26.336C107.08 26.336 105.728 25.8 104.72 24.728C103.728 23.64 103.232 22.04 103.232 19.928C103.232 17.768 103.768 16.12 104.84 14.984C105.912 13.832 107.336 13.256 109.112 13.256C112.12 13.256 113.624 15.032 113.624 18.584H106.88C106.864 18.824 106.856 19.2 106.856 19.712C106.856 20.768 107 21.648 107.288 22.352C107.592 23.056 107.976 23.568 108.44 23.888C108.92 24.208 109.432 24.368 109.976 24.368ZM108.968 13.76C108.392 13.76 107.912 14.12 107.528 14.84C107.16 15.544 106.928 16.64 106.832 18.128H110.6C110.632 16.864 110.504 15.824 110.216 15.008C109.944 14.176 109.528 13.76 108.968 13.76ZM119.766 13.256C120.374 13.256 120.934 13.336 121.446 13.496C121.958 13.64 122.35 13.808 122.622 14C122.782 14.112 122.926 14.168 123.054 14.168C123.198 14.168 123.318 14.096 123.414 13.952C123.526 13.792 123.598 13.568 123.63 13.28H124.134C124.07 14.096 124.038 15.504 124.038 17.504H123.534C123.39 16.448 123.07 15.568 122.574 14.864C122.094 14.144 121.39 13.784 120.462 13.784C119.982 13.784 119.582 13.92 119.262 14.192C118.958 14.464 118.806 14.84 118.806 15.32C118.806 15.864 118.99 16.336 119.358 16.736C119.726 17.12 120.302 17.592 121.086 18.152L121.782 18.656C122.758 19.392 123.478 20.048 123.942 20.624C124.406 21.2 124.638 21.92 124.638 22.784C124.638 23.488 124.43 24.112 124.014 24.656C123.614 25.2 123.07 25.616 122.382 25.904C121.694 26.192 120.934 26.336 120.102 26.336C119.222 26.336 118.47 26.168 117.846 25.832C117.334 25.576 116.966 25.408 116.742 25.328C116.582 25.28 116.438 25.336 116.31 25.496C116.198 25.64 116.11 25.864 116.046 26.168H115.542C115.606 25.256 115.638 23.656 115.638 21.368H116.142C116.462 24.312 117.542 25.784 119.382 25.784C119.846 25.784 120.238 25.648 120.558 25.376C120.894 25.088 121.062 24.656 121.062 24.08C121.062 23.632 120.958 23.232 120.75 22.88C120.558 22.528 120.31 22.216 120.006 21.944C119.702 21.672 119.246 21.296 118.638 20.816C117.918 20.24 117.366 19.776 116.982 19.424C116.614 19.072 116.294 18.656 116.021 18.176C115.766 17.696 115.638 17.16 115.638 16.568C115.638 15.544 116.038 14.736 116.838 14.144C117.638 13.552 118.614 13.256 119.766 13.256ZM130.851 13.256C131.459 13.256 132.019 13.336 132.531 13.496C133.043 13.64 133.435 13.808 133.707 14C133.867 14.112 134.011 14.168 134.139 14.168C134.283 14.168 134.403 14.096 134.499 13.952C134.611 13.792 134.683 13.568 134.715 13.28H135.219C135.155 14.096 135.123 15.504 135.123 17.504H134.619C134.475 16.448 134.155 15.568 133.659 14.864C133.179 14.144 132.475 13.784 131.547 13.784C131.067 13.784 130.667 13.92 130.347 14.192C130.043 14.464 129.891 14.84 129.891 15.32C129.891 15.864 130.075 16.336 130.443 16.736C130.811 17.12 131.387 17.592 132.171 18.152L132.867 18.656C133.843 19.392 134.563 20.048 135.027 20.624C135.491 21.2 135.723 21.92 135.723 22.784C135.723 23.488 135.515 24.112 135.099 24.656C134.699 25.2 134.155 25.616 133.467 25.904C132.779 26.192 132.019 26.336 131.187 26.336C130.307 26.336 129.555 26.168 128.931 25.832C128.419 25.576 128.051 25.408 127.827 25.328C127.667 25.28 127.523 25.336 127.395 25.496C127.283 25.64 127.195 25.864 127.131 26.168H126.627C126.691 25.256 126.723 23.656 126.723 21.368H127.227C127.547 24.312 128.627 25.784 130.467 25.784C130.931 25.784 131.323 25.648 131.643 25.376C131.979 25.088 132.147 24.656 132.147 24.08C132.147 23.632 132.043 23.232 131.835 22.88C131.643 22.528 131.395 22.216 131.091 21.944C130.787 21.672 130.331 21.296 129.723 20.816C129.003 20.24 128.451 19.776 128.067 19.424C127.699 19.072 127.379 18.656 127.107 18.176C126.851 17.696 126.723 17.16 126.723 16.568C126.723 15.544 127.123 14.736 127.923 14.144C128.723 13.552 129.699 13.256 130.851 13.256Z" fill="#394247"/>
<path d="M19.024 26H14.656L12.232 15.968L9.808 26H5.44L0.856 9.992H5.488L7.912 20.672L10.648 9.992H13.816L16.552 20.672L18.952 9.992H23.608L19.024 26Z" fill="#1C85E8"/>
<path d="M25.976 10L30.344 10L32.768 20.032L35.192 10H39.56L44.144 26.008H39.512L37.088 15.328L34.352 26.008H31.184L28.448 15.328L26.048 26.008L21.392 26.008L25.976 10Z" fill="#1C85E8"/>
</svg>
