<svg width="9" height="9" viewBox="0 0 9 9" fill="none" xmlns="http://www.w3.org/2000/svg">
<path d="M8.856 1.91121L8.56119 1.61641C8.46856 1.5237 8.34505 1.4727 8.21319 1.4727C8.08134 1.4727 7.95776 1.5237 7.86512 1.61641L3.72271 5.75875L1.13459 3.17056C1.04195 3.07799 0.918366 3.02692 0.786512 3.02692C0.654732 3.02692 0.531219 3.07799 0.438512 3.17056L0.143634 3.46529C0.0509268 3.55814 0 3.6818 0 3.81351C0 3.94529 0.0509268 4.06887 0.143634 4.16158L3.06578 7.08358C3.06966 7.08907 3.07376 7.09419 3.07851 7.09887L3.37339 7.38885C3.46602 7.48119 3.58961 7.52736 3.72249 7.52736H3.72402C3.85595 7.52736 3.97954 7.48119 4.07202 7.38885L4.36698 7.09631C4.37173 7.09163 4.37576 7.08775 4.37817 7.0838L8.85593 2.60648C9.048 2.41485 9.048 2.10307 8.856 1.91121Z" fill="black"/>
</svg>
