<svg width="17" height="17" viewBox="0 0 17 17" fill="none" xmlns="http://www.w3.org/2000/svg">
<g clip-path="url(#clip0)">
<path d="M15.4062 2.12497H1.59376C0.714907 2.12497 0 2.83988 0 3.71873V13.2812C0 14.1601 0.714907 14.875 1.59376 14.875H15.4062C16.2851 14.875 17 14.1601 17 13.2812V3.71873C17 2.83988 16.2851 2.12497 15.4062 2.12497ZM15.4062 3.18746C15.4784 3.18746 15.5471 3.20244 15.6099 3.22859L8.5 9.39076L1.39011 3.22859C1.45288 3.20248 1.52155 3.18746 1.59373 3.18746H15.4062ZM15.4062 13.8125H1.59376C1.30064 13.8125 1.0625 13.5743 1.0625 13.2812V4.35113L8.15188 10.4953C8.25202 10.5819 8.37601 10.625 8.5 10.625C8.62399 10.625 8.74798 10.5819 8.84812 10.4953L15.9375 4.35113V13.2812C15.9375 13.5743 15.6994 13.8125 15.4062 13.8125Z" fill="black"/>
</g>
<defs>
<clipPath id="clip0">
<rect width="17" height="17" fill="white"/>
</clipPath>
</defs>
</svg>
